<svg xmlns="http://www.w3.org/2000/svg" xmlns:xlink="http://www.w3.org/1999/xlink" viewBox="0 0 46 46">
    <defs>
        <filter id="a" x="-50" y="-50" width="200" height="200" name="filter-1">
            <feOffset result="shadowOffsetOuter1" dy="1" in="SourceAlpha"/>
            <feGaussianBlur result="shadowBlurOuter1" stdDeviation="0.5" in="shadowOffsetOuter1"/>
            <feColorMatrix result="shadowMatrixOuter1" values="0 0 0 0 0 0 0 0 0 0 0 0 0 0 0 0 0 0 0.17 0" in="shadowBlurOuter1"/>
            <feOffset result="shadowOffsetOuter2" in="SourceAlpha"/>
            <feGaussianBlur result="shadowBlurOuter2" stdDeviation="0.5" in="shadowOffsetOuter2"/>
            <feColorMatrix result="shadowMatrixOuter2" values="0 0 0 0 0 0 0 0 0 0 0 0 0 0 0 0 0 0 0.08 0" in="shadowBlurOuter2"/>
            <feMerge>
                <feMergeNode in="shadowMatrixOuter1"/>
                <feMergeNode in="shadowMatrixOuter2"/>
                <feMergeNode in="SourceGraphic"/>
            </feMerge>
        </filter>
    </defs>
    <title>
        btn_google_light_normal_ios
    </title>
    <g filter="url(#a)">
        <rect x="3" y="3" width="40" height="40" rx="2" fill="#fff"/>
    </g>
    <path d="M31.64,23.2a11,11,0,0,0-.16-1.84H23v3.49h4.84a4.12,4.12,0,0,1-1.79,2.71v2.26H29a8.78,8.78,0,0,0,2.68-6.62Z" fill="#4285f4" fill-rule="evenodd"/>
    <path d="M23,32a8.62,8.62,0,0,0,6-2.18l-2.91-2.26a5.43,5.43,0,0,1-3.05.86,5.37,5.37,0,0,1-5-3.71H15V27a9,9,0,0,0,8,5Z" fill="#34a853" fill-rule="evenodd"/>
    <path d="M18,24.71a5.36,5.36,0,0,1,0-3.42V19H15A9,9,0,0,0,15,27l3-2.33Z" fill="#fbbc05" fill-rule="evenodd"/>
    <path d="M23,17.58a4.83,4.83,0,0,1,3.44,1.35L29,16.34A8.65,8.65,0,0,0,23,14a9,9,0,0,0-8,5l3,2.33a5.37,5.37,0,0,1,5-3.71Z" fill="#ea4335" fill-rule="evenodd"/>
    <path d="M14,14H32V32H14Z" fill="none"/>
</svg>
