<svg xmlns="http://www.w3.org/2000/svg" viewBox="0 0 64 64"><title>icon_calendar</title><path d="M11.25,20.31h41.5a0,0,0,0,1,0,0V46.37a5.4,5.4,0,0,1-5.4,5.4H16.65a5.4,5.4,0,0,1-5.4-5.4V20.31A0,0,0,0,1,11.25,20.31Z" fill="#e5daca" stroke="#e5daca" stroke-miterlimit="10"/><path d="M16.6,12H47.4A5.6,5.6,0,0,1,53,17.6v3.9a0,0,0,0,1,0,0H11a0,0,0,0,1,0,0V17.6A5.6,5.6,0,0,1,16.6,12Z" fill="#5cb3b1" stroke="#5cb3b1" stroke-miterlimit="10" stroke-width="0.5"/><rect x="14.5" y="24.5" width="5" height="5" rx="1"/><rect x="24.5" y="24.5" width="5" height="5" rx="1"/><rect x="14.5" y="33" width="5" height="5" rx="1"/><rect x="24.5" y="33" width="5" height="5" rx="1"/><rect x="14.5" y="42" width="5" height="5" rx="1"/><rect x="24.5" y="42" width="5" height="5" rx="1"/><rect x="34.5" y="24.5" width="5" height="5" rx="1"/><rect x="44.5" y="24.5" width="5" height="5" rx="1"/><rect x="34.5" y="33" width="5" height="5" rx="1"/><rect x="44.5" y="33" width="5" height="5" rx="1"/><rect x="34.5" y="42" width="5" height="5" rx="1"/></svg>