<svg xmlns="http://www.w3.org/2000/svg" viewBox="0 0 64 64">
    <title>
        icon-trash
    </title>
    <path d="M40.51,55.5H23.42a4.2,4.2,0,0,1-4.19-4.18L17.32,21.51c0-2.31,4-2.1,6.28-2.1H40.33c2.31,0,6.28-.21,6.28,2.1L44.7,51.32A4.2,4.2,0,0,1,40.51,55.5Z" fill="none" stroke="#000" stroke-miterlimit="10" stroke-width="1.5"/>
    <rect x="24.49" y="25.17" width="1.35" height="23.01" rx="0.5" transform="matrix(1, -0.03, 0.03, 1, -1.26, 0.9)" fill="none" stroke="#000" stroke-miterlimit="10" stroke-width="1.5"/>
    <rect x="31.4" y="22.55" width="1.13" height="27.2" rx="0.5" fill="none" stroke="#000" stroke-miterlimit="10" stroke-width="1.5"/>
    <rect x="38.16" y="25.17" width="1.21" height="23.01" rx="0.5" transform="translate(1.3 -1.33) rotate(2)" fill="none" stroke="#000" stroke-miterlimit="10" stroke-width="1.5"/>
    <rect x="13" y="15.3" width="38" height="3.82" rx="1.91" fill="none" stroke="#000" stroke-miterlimit="10" stroke-width="1.5"/>
    <rect x="24.12" y="11" width="15.69" height="4" rx="1" fill="none" stroke="#000" stroke-miterlimit="10" stroke-width="1.5"/>
</svg>
