<svg xmlns="http://www.w3.org/2000/svg" viewBox="0 0 118.05 65.25"><title>logo-weightboss3</title><rect x="31.95" y="25.13" width="54.15" height="15" fill="#e5daca" stroke="#000" stroke-miterlimit="10" stroke-width="0.25"/><rect x="22.13" y="0.13" width="9.8" height="65" rx="4.9" fill="#5cb3b1" stroke="#000" stroke-miterlimit="10" stroke-width="0.25"/><rect x="86.13" y="0.12" width="9.8" height="65" rx="4.9" fill="#5cb3b1" stroke="#000" stroke-miterlimit="10" stroke-width="0.25"/><rect x="13.94" y="17.11" width="8.17" height="31.03" rx="1" fill="#5cb3b1" stroke="#000" stroke-miterlimit="10" stroke-width="0.25"/><rect x="95.94" y="17.11" width="8.17" height="31.03" rx="1" fill="#5cb3b1" stroke="#000" stroke-miterlimit="10" stroke-width="0.25"/><path d="M1.13,26.13h12.8a0,0,0,0,1,0,0v13a0,0,0,0,1,0,0H1.13a1,1,0,0,1-1-1v-11a1,1,0,0,1,1-1Z" fill="#e5daca" stroke="#000" stroke-miterlimit="10" stroke-width="0.25"/><path d="M104.13,26.12h12.8a1,1,0,0,1,1,1v11a1,1,0,0,1-1,1h-12.8a0,0,0,0,1,0,0v-13A0,0,0,0,1,104.13,26.12Z" fill="#e5daca" stroke="#000" stroke-miterlimit="10" stroke-width="0.25"/></svg>