<svg xmlns="http://www.w3.org/2000/svg" viewBox="0 0 447.62 447.62">
    <path d="M905,708.66C905,817.08,817.08,905,708.66,905S512.35,817.08,512.35,708.66s87.89-196.31,196.31-196.31c79.94,0,134.48,52.95,141.34,60.08C857.74,580.45,905,633,905,708.66Z" transform="translate(-484.85 -484.85)" fill="none" stroke="#e5daca" stroke-miterlimit="10" stroke-width="55"/>
    <path d="M527,634.22a200.9,200.9,0,0,1,45.69-67.12,195.61,195.61,0,0,1,124.55-54.41c7.77-.45,13.87-.34,16.76-.25a193.13,193.13,0,0,1,47.48,7.69,212.94,212.94,0,0,1,53.18,24.37,221,221,0,0,1,28.85,21.71" transform="translate(-484.85 -484.85)" fill="none" stroke="#282c34" stroke-miterlimit="10" stroke-width="65"/>
</svg>
