<svg xmlns="http://www.w3.org/2000/svg" viewBox="0 0 112.93 87.14"><title>logo-weightboss</title><rect x="34.93" y="60.8" width="54.15" height="16.41" transform="translate(-31.89 14.86) rotate(-28.4)" fill="#e5daca" stroke="#e5daca" stroke-miterlimit="10" stroke-width="0.25"/><rect x="28.95" y="55.64" width="9.8" height="57.16" rx="4.9" transform="translate(-42.51 3.3) rotate(-28.4)" fill="#e5daca" stroke="#e5daca" stroke-miterlimit="10" stroke-width="0.25"/><rect x="85.25" y="25.2" width="9.8" height="57.16" rx="4.9" transform="translate(-21.26 26.41) rotate(-28.4)" fill="#e5daca" stroke="#e5daca" stroke-miterlimit="10" stroke-width="0.25"/><rect x="21.85" y="72.98" width="8.17" height="31.03" rx="1" transform="translate(-45.5 0.05) rotate(-28.4)" fill="#e5daca" stroke="#e5daca" stroke-miterlimit="10" stroke-width="0.25"/><rect x="93.98" y="33.99" width="8.17" height="31.03" rx="1" transform="translate(-18.28 29.66) rotate(-28.4)" fill="#e5daca" stroke="#e5daca" stroke-miterlimit="10" stroke-width="0.25"/><path d="M10.36,85.56h12.8a0,0,0,0,1,0,0v16.33a0,0,0,0,1,0,0H10.36a1,1,0,0,1-1-1V86.56A1,1,0,0,1,10.36,85.56Z" transform="translate(-49.15 -3.92) rotate(-28.4)" fill="#e5daca" stroke="#e5daca" stroke-miterlimit="10" stroke-width="0.25"/><path d="M100.84,36.11h12.8a1,1,0,0,1,1,1V51.44a1,1,0,0,1-1,1h-12.8a0,0,0,0,1,0,0V36.11a0,0,0,0,1,0,0Z" transform="translate(-14.62 33.63) rotate(-28.4)" fill="#e5daca" stroke="#e5daca" stroke-miterlimit="10" stroke-width="0.25"/><rect x="35.93" y="58.8" width="54.15" height="16.41" transform="translate(-30.81 15.09) rotate(-28.4)" fill="#c6bdb3" stroke="#c6bdb3" stroke-miterlimit="10" stroke-width="0.25"/><rect x="29.95" y="53.64" width="9.8" height="57.16" rx="4.9" transform="translate(-41.44 3.53) rotate(-28.4)" fill="#c6bdb3" stroke="#c6bdb3" stroke-miterlimit="10" stroke-width="0.25"/><rect x="86.25" y="23.2" width="9.8" height="57.16" rx="4.9" transform="translate(-20.19 26.65) rotate(-28.4)" fill="#c6bdb3" stroke="#c6bdb3" stroke-miterlimit="10" stroke-width="0.25"/><rect x="22.85" y="70.98" width="8.17" height="31.03" rx="1" transform="translate(-44.43 0.28) rotate(-28.4)" fill="#c6bdb3" stroke="#c6bdb3" stroke-miterlimit="10" stroke-width="0.25"/><rect x="94.98" y="31.99" width="8.17" height="31.03" rx="1" transform="translate(-17.2 29.9) rotate(-28.4)" fill="#c6bdb3" stroke="#c6bdb3" stroke-miterlimit="10" stroke-width="0.25"/><path d="M11.36,83.56h12.8a0,0,0,0,1,0,0V99.89a0,0,0,0,1,0,0H11.36a1,1,0,0,1-1-1V84.56A1,1,0,0,1,11.36,83.56Z" transform="translate(-48.08 -3.69) rotate(-28.4)" fill="#c6bdb3" stroke="#c6bdb3" stroke-miterlimit="10" stroke-width="0.25"/><path d="M101.84,34.11h12.8a1,1,0,0,1,1,1V49.44a1,1,0,0,1-1,1h-12.8a0,0,0,0,1,0,0V34.11A0,0,0,0,1,101.84,34.11Z" transform="translate(-13.55 33.87) rotate(-28.4)" fill="#c6bdb3" stroke="#c6bdb3" stroke-miterlimit="10" stroke-width="0.25"/><rect x="36.93" y="55.8" width="54.15" height="16.41" transform="translate(-29.27 15.21) rotate(-28.4)" fill="#5cb3b1" stroke="#3a706d" stroke-miterlimit="10" stroke-width="0.25"/><rect x="30.95" y="50.64" width="9.8" height="57.16" rx="4.9" transform="translate(-39.89 3.65) rotate(-28.4)" fill="#5cb3b1" stroke="#3a706d" stroke-miterlimit="10" stroke-width="0.25"/><rect x="87.25" y="20.2" width="9.8" height="57.16" rx="4.9" transform="translate(-18.64 26.76) rotate(-28.4)" fill="#5cb3b1" stroke="#3a706d" stroke-miterlimit="10" stroke-width="0.25"/><rect x="23.85" y="67.98" width="8.17" height="31.03" rx="1" transform="translate(-42.88 0.4) rotate(-28.4)" fill="#5cb3b1" stroke="#3a706d" stroke-miterlimit="10" stroke-width="0.25"/><rect x="95.98" y="28.99" width="8.17" height="31.03" rx="1" transform="translate(-15.66 30.01) rotate(-28.4)" fill="#5cb3b1" stroke="#3a706d" stroke-miterlimit="10" stroke-width="0.25"/><path d="M12.36,80.56h12.8a0,0,0,0,1,0,0V96.89a0,0,0,0,1,0,0H12.36a1,1,0,0,1-1-1V81.56A1,1,0,0,1,12.36,80.56Z" transform="translate(-46.53 -3.57) rotate(-28.4)" fill="#5cb3b1" stroke="#3a706d" stroke-miterlimit="10" stroke-width="0.25"/><path d="M102.84,31.11h12.8a1,1,0,0,1,1,1V46.44a1,1,0,0,1-1,1h-12.8a0,0,0,0,1,0,0V31.11A0,0,0,0,1,102.84,31.11Z" transform="translate(-12.01 33.98) rotate(-28.4)" fill="#5cb3b1" stroke="#3a706d" stroke-miterlimit="10" stroke-width="0.25"/></svg>