<svg xmlns="http://www.w3.org/2000/svg" viewBox="0 0 240.78 111.04">
    <rect x="73.42" y="45.48" width="88.75" height="24.59" fill="#786c64"/>
    <path d="M173.17,654.8h0a8,8,0,0,1,8,8V753.3a8,8,0,0,1-8,8h0a8,8,0,0,1-8-8V662.83A8,8,0,0,1,173.17,654.8Z" transform="translate(-114.91 -650.29)" fill="#786c64"/>
    <path d="M292.23,654.8h0a8,8,0,0,1,8,8V753.3a8,8,0,0,1-8,8h0a8,8,0,0,1-8-8V662.83A8,8,0,0,1,292.23,654.8Z" transform="translate(-114.91 -650.29)" fill="#786c64"/>
    <rect x="29.73" y="32.36" width="13.39" height="50.86" rx="1.64" fill="#786c64"/>
    <rect x="192.47" y="32.34" width="13.39" height="50.86" rx="1.64" fill="#786c64"/>
    <path d="M116.55,697.41h21v21.31h-21a1.65,1.65,0,0,1-1.64-1.64v-18A1.64,1.64,0,0,1,116.55,697.41Z" transform="translate(-114.91 -650.29)" fill="#786c64"/>
    <path d="M327.87,697.41h21a1.64,1.64,0,0,1,1.64,1.64v18a1.65,1.65,0,0,1-1.64,1.64h-21V697.41Z" transform="translate(-114.91 -650.29)" fill="#786c64"/>
    <rect x="78.62" y="40.98" width="88.75" height="24.59" fill="#efe8e1"/>
    <path d="M178.37,650.29h0a8,8,0,0,1,8,8v90.47a8,8,0,0,1-8,8h0a8,8,0,0,1-8-8V658.32A8,8,0,0,1,178.37,650.29Z" transform="translate(-114.91 -650.29)" fill="#efe8e1"/>
    <path d="M297.43,650.29h0a8,8,0,0,1,8,8v90.47a8,8,0,0,1-8,8h0a8,8,0,0,1-8-8V658.32A8,8,0,0,1,297.43,650.29Z" transform="translate(-114.91 -650.29)" fill="#efe8e1"/>
    <rect x="34.94" y="27.85" width="13.39" height="50.86" rx="1.64" fill="#efe8e1"/>
    <rect x="197.67" y="27.83" width="13.39" height="50.86" rx="1.64" fill="#efe8e1"/>
    <path d="M121.75,692.9h21v21.31h-21a1.64,1.64,0,0,1-1.63-1.64v-18A1.64,1.64,0,0,1,121.75,692.9Z" transform="translate(-114.91 -650.29)" fill="#efe8e1"/>
    <path d="M333.07,692.9h21a1.64,1.64,0,0,1,1.64,1.64v18a1.64,1.64,0,0,1-1.64,1.64h-21V692.9Z" transform="translate(-114.91 -650.29)" fill="#efe8e1"/>
</svg>
